<?xml version="1.0" encoding="utf-8"?>
<svg viewBox="0 175 499.9994 120.9999" xmlns="http://www.w3.org/2000/svg" xmlns:xlink="http://www.w3.org/1999/xlink">
  <defs>
    <clipPath id="clip0">
      <rect width="1140" height="342" fill="white"/>
    </clipPath>
    <linearGradient gradientUnits="userSpaceOnUse" x1="562.25" y1="-109" x2="562.25" y2="410" id="gradient-0" gradientTransform="matrix(-0.248613, 0.791455, -2.294432, -0.48121, 993.359131, -170.441003)" spreadMethod="pad">
      <stop style="stop-color: rgb(45, 124, 172);"/>
      <stop offset="1" style="stop-color: rgb(109, 191, 162);"/>
    </linearGradient>
    <path id="path-0" d="M 152.899 257.941 C 192.923 253.198 207.876 247.568 227.312 246.562 C 248.676 245.456 264.876 254.807 284.586 256.52 C 304.287 258.232 312.829 257.817 326.091 259.124 L 353.508 263.101" style="fill: none;"/>
    <style>@import url("https://fonts.googleapis.com/css2?family=Amarante:ital,wght@0,400&amp;display=swap");</style>
  </defs>
  <g clip-path="url(#clip0)" transform="matrix(0.43859598040580744, 0, 0, 0.3840280175209045, 0, 175)">
    <path d="M 344 184.343 C 196.8 143.487 48.5 204.771 2.5 255.84 L -56 315.081 L -56 -109 L 1163.5 -109 L 1180.5 213.35 C 1128.9 155.499 929.5 150.193 821 184.343 C 712.5 218.492 491.2 225.198 344 184.343 Z" style="stroke-width: 4.56001px; fill-rule: nonzero; fill: url('#gradient-0'); paint-order: fill; stroke: rgb(186, 218, 85);"/>
  </g>
  <text style="fill: rgb(250, 255, 79); font-family: Amarante; font-size: 28.5814px; line-height: 45.7303px; paint-order: stroke; stroke: rgb(20, 162, 175); white-space: pre; transform-origin: 15.5966px 246.058px;" transform="matrix(1.257336974144, 0, 0, 0.90968298912, -142.055662887623, -35.111110896429)"><textPath startOffset="0" xlink:href="#path-0">Hei, jeg er Inna!</textPath></text>
  <path style="stroke: rgb(41, 218, 169); fill: rgb(255, 251, 122); fill-rule: evenodd; paint-order: stroke; stroke-opacity: 0.7; fill-opacity: 0.7;" transform="matrix(-0.12417900562286376, 0.220317006111145, -0.220317006111145, -0.12417900562286376, 580.2907104492186, 72.7636032104492)" d="M 773.632317008 335.501 L 784.367682992 335.501 L 788.492018662 358.709007962 A 32.699 32.699 0 0 1 794.414201897 361.162056577 L 813.741087425 347.66786249 L 821.33213751 355.258912575 L 807.837943423 374.585798103 A 32.699 32.699 0 0 1 810.290992038 380.507981338 L 833.499 384.632317008 L 833.499 395.367682992 L 810.290992038 399.492018662 A 32.699 32.699 0 0 1 807.837943423 405.414201897 L 821.33213751 424.741087425 L 813.741087425 432.33213751 L 794.414201897 418.837943423 A 32.699 32.699 0 0 1 788.492018662 421.290992038 L 784.367682992 444.499 L 773.632317008 444.499 L 769.507981338 421.290992038 A 32.699 32.699 0 0 1 763.585798103 418.837943423 L 744.258912575 432.33213751 L 736.66786249 424.741087425 L 750.162056577 405.414201897 A 32.699 32.699 0 0 1 747.709007962 399.492018662 L 724.501 395.367682992 L 724.501 384.632317008 L 747.709007962 380.507981338 A 32.699 32.699 0 0 1 750.162056577 374.585798103 L 736.66786249 355.258912575 L 744.258912575 347.66786249 L 763.585798103 361.162056577 A 32.699 32.699 0 0 1 769.507981338 358.709007962 Z M 779 373.65 A 16.35 16.35 0 0 0 779 406.35 A 16.35 16.35 0 0 0 779 373.65"/>
  <path style="stroke: rgb(41, 218, 169); fill: rgb(255, 251, 122); fill-rule: evenodd; paint-order: stroke;" transform="matrix(-0.09313400834798811, 0.16523799300193784, -0.16523799300193784, -0.09313400834798811, 520.6840209960936, 120.71743011474608)" d="M 773.632317008 335.501 L 784.367682992 335.501 L 788.492018662 358.709007962 A 32.699 32.699 0 0 1 794.414201897 361.162056577 L 813.741087425 347.66786249 L 821.33213751 355.258912575 L 807.837943423 374.585798103 A 32.699 32.699 0 0 1 810.290992038 380.507981338 L 833.499 384.632317008 L 833.499 395.367682992 L 810.290992038 399.492018662 A 32.699 32.699 0 0 1 807.837943423 405.414201897 L 821.33213751 424.741087425 L 813.741087425 432.33213751 L 794.414201897 418.837943423 A 32.699 32.699 0 0 1 788.492018662 421.290992038 L 784.367682992 444.499 L 773.632317008 444.499 L 769.507981338 421.290992038 A 32.699 32.699 0 0 1 763.585798103 418.837943423 L 744.258912575 432.33213751 L 736.66786249 424.741087425 L 750.162056577 405.414201897 A 32.699 32.699 0 0 1 747.709007962 399.492018662 L 724.501 395.367682992 L 724.501 384.632317008 L 747.709007962 380.507981338 A 32.699 32.699 0 0 1 750.162056577 374.585798103 L 736.66786249 355.258912575 L 744.258912575 347.66786249 L 763.585798103 361.162056577 A 32.699 32.699 0 0 1 769.507981338 358.709007962 Z M 779 373.65 A 16.35 16.35 0 0 0 779 406.35 A 16.35 16.35 0 0 0 779 373.65"/>
  <path style="stroke: rgb(41, 218, 169); fill: rgb(255, 251, 122); fill-rule: evenodd; paint-order: stroke; fill-opacity: 0.7; stroke-opacity: 0.7;" transform="matrix(-0.12417900562286376, 0.220317006111145, -0.220317006111145, -0.12417900562286376, 617.9000854492186, 83.34589385986327)" d="M 773.632317008 335.501 L 784.367682992 335.501 L 788.492018662 358.709007962 A 32.699 32.699 0 0 1 794.414201897 361.162056577 L 813.741087425 347.66786249 L 821.33213751 355.258912575 L 807.837943423 374.585798103 A 32.699 32.699 0 0 1 810.290992038 380.507981338 L 833.499 384.632317008 L 833.499 395.367682992 L 810.290992038 399.492018662 A 32.699 32.699 0 0 1 807.837943423 405.414201897 L 821.33213751 424.741087425 L 813.741087425 432.33213751 L 794.414201897 418.837943423 A 32.699 32.699 0 0 1 788.492018662 421.290992038 L 784.367682992 444.499 L 773.632317008 444.499 L 769.507981338 421.290992038 A 32.699 32.699 0 0 1 763.585798103 418.837943423 L 744.258912575 432.33213751 L 736.66786249 424.741087425 L 750.162056577 405.414201897 A 32.699 32.699 0 0 1 747.709007962 399.492018662 L 724.501 395.367682992 L 724.501 384.632317008 L 747.709007962 380.507981338 A 32.699 32.699 0 0 1 750.162056577 374.585798103 L 736.66786249 355.258912575 L 744.258912575 347.66786249 L 763.585798103 361.162056577 A 32.699 32.699 0 0 1 769.507981338 358.709007962 Z M 779 373.65 A 16.35 16.35 0 0 0 779 406.35 A 16.35 16.35 0 0 0 779 373.65"/>
  <path style="stroke: rgb(41, 218, 169); fill: rgb(255, 251, 122); fill-rule: evenodd; paint-order: stroke;" transform="matrix(-0.07761200517415999, 0.13769799470901486, -0.13769799470901486, -0.07761200517415999, 532.8232421874999, 116.35099029541014)" d="M 773.632317008 335.501 L 784.367682992 335.501 L 788.492018662 358.709007962 A 32.699 32.699 0 0 1 794.414201897 361.162056577 L 813.741087425 347.66786249 L 821.33213751 355.258912575 L 807.837943423 374.585798103 A 32.699 32.699 0 0 1 810.290992038 380.507981338 L 833.499 384.632317008 L 833.499 395.367682992 L 810.290992038 399.492018662 A 32.699 32.699 0 0 1 807.837943423 405.414201897 L 821.33213751 424.741087425 L 813.741087425 432.33213751 L 794.414201897 418.837943423 A 32.699 32.699 0 0 1 788.492018662 421.290992038 L 784.367682992 444.499 L 773.632317008 444.499 L 769.507981338 421.290992038 A 32.699 32.699 0 0 1 763.585798103 418.837943423 L 744.258912575 432.33213751 L 736.66786249 424.741087425 L 750.162056577 405.414201897 A 32.699 32.699 0 0 1 747.709007962 399.492018662 L 724.501 395.367682992 L 724.501 384.632317008 L 747.709007962 380.507981338 A 32.699 32.699 0 0 1 750.162056577 374.585798103 L 736.66786249 355.258912575 L 744.258912575 347.66786249 L 763.585798103 361.162056577 A 32.699 32.699 0 0 1 769.507981338 358.709007962 Z M 779 373.65 A 16.35 16.35 0 0 0 779 406.35 A 16.35 16.35 0 0 0 779 373.65"/>
</svg>